<?xml version="1.0" encoding="UTF-8"?>
<!DOCTYPE svg PUBLIC "-//W3C//DTD SVG 1.1//EN" "http://www.w3.org/Graphics/SVG/1.1/DTD/svg11.dtd">
<svg xmlns="http://www.w3.org/2000/svg" version="1.1" width="1741px" height="336px" style="shape-rendering:geometricPrecision; text-rendering:geometricPrecision; image-rendering:optimizeQuality; fill-rule:evenodd; clip-rule:evenodd" xmlns:xlink="http://www.w3.org/1999/xlink">
<g><path style="opacity:0.988" fill="#fefefe" d="M -0.5,-0.5 C 35.1667,-0.5 70.8333,-0.5 106.5,-0.5C 106.333,33.1683 106.5,66.835 107,100.5C 141.181,78.8314 177.347,74.9981 215.5,89C 241.917,101.76 259.417,122.26 268,150.5C 270.792,160 272.792,169.667 274,179.5C 274.5,147.502 274.667,115.502 274.5,83.5C 302.5,83.5 330.5,83.5 358.5,83.5C 358.333,134.834 358.5,186.168 359,237.5C 358.688,259.24 369.355,270.24 391,270.5C 408.771,270.615 422.771,263.615 433,249.5C 435.455,245.469 437.121,241.136 438,236.5C 438.5,203.835 438.667,171.168 438.5,138.5C 427.833,138.5 417.167,138.5 406.5,138.5C 406.5,120.167 406.5,101.833 406.5,83.5C 444.5,83.5 482.5,83.5 520.5,83.5C 520.5,148.5 520.5,213.5 520.5,278.5C 528.167,278.5 535.833,278.5 543.5,278.5C 543.5,296.5 543.5,314.5 543.5,332.5C 512.167,332.5 480.833,332.5 449.5,332.5C 449.666,322.494 449.5,312.494 449,302.5C 440.965,311.525 431.465,318.692 420.5,324C 405.427,330.842 389.76,334.675 373.5,335.5C 371.833,335.5 370.167,335.5 368.5,335.5C 315.46,333.965 284.626,306.965 276,254.5C 275.231,246.509 274.565,238.509 274,230.5C 271.365,257.759 261.698,282.093 245,303.5C 224.84,324.164 200.34,334.831 171.5,335.5C 169.5,335.5 167.5,335.5 165.5,335.5C 141.712,334.514 120.545,326.514 102,311.5C 101.5,318.492 101.334,325.492 101.5,332.5C 75.5,332.5 49.5,332.5 23.5,332.5C 23.5,239.5 23.5,146.5 23.5,53.5C 15.5,53.5 7.5,53.5 -0.5,53.5C -0.5,35.5 -0.5,17.5 -0.5,-0.5 Z M 142.5,142.5 C 164.153,140.404 178.986,149.404 187,169.5C 193.147,191.226 194.147,213.226 190,235.5C 187.666,248.007 181.832,258.507 172.5,267C 151.857,277.897 133.357,275.064 117,258.5C 107.453,243.819 102.953,227.653 103.5,210C 103.431,195.682 105.931,181.848 111,168.5C 117.463,154.864 127.963,146.197 142.5,142.5 Z"/></g>
<g><path style="opacity:0.988" fill="#fefffe" d="M 713.5,80.5 C 739.743,78.7195 763.076,85.8861 783.5,102C 789.168,107.188 794.002,113.021 798,119.5C 814.162,98.1578 835.662,85.6578 862.5,82C 889.961,77.6842 915.295,83.0175 938.5,98C 956.754,113.657 967.92,133.49 972,157.5C 973.658,166.762 974.658,176.095 975,185.5C 975.5,216.498 975.667,247.498 975.5,278.5C 984.5,278.5 993.5,278.5 1002.5,278.5C 1002.5,296.5 1002.5,314.5 1002.5,332.5C 957.167,332.5 911.833,332.5 866.5,332.5C 866.5,314.5 866.5,296.5 866.5,278.5C 875.5,278.5 884.5,278.5 893.5,278.5C 893.975,241.452 893.475,204.452 892,167.5C 889.695,157.86 883.862,151.36 874.5,148C 853.901,142.022 836.401,146.856 822,162.5C 817.563,168.809 814.896,175.809 814,183.5C 813.5,215.165 813.333,246.832 813.5,278.5C 823.167,278.5 832.833,278.5 842.5,278.5C 842.5,296.5 842.5,314.5 842.5,332.5C 796.833,332.5 751.167,332.5 705.5,332.5C 705.5,314.5 705.5,296.5 705.5,278.5C 714.833,278.5 724.167,278.5 733.5,278.5C 733.667,245.165 733.5,211.832 733,178.5C 732.576,156.576 721.41,145.576 699.5,145.5C 675.43,146.431 660.264,158.431 654,181.5C 653.5,213.832 653.333,246.165 653.5,278.5C 662.833,278.5 672.167,278.5 681.5,278.5C 681.5,296.5 681.5,314.5 681.5,332.5C 635.833,332.5 590.167,332.5 544.5,332.5C 544.5,314.5 544.5,296.5 544.5,278.5C 553.5,278.5 562.5,278.5 571.5,278.5C 571.5,231.833 571.5,185.167 571.5,138.5C 562.5,138.5 553.5,138.5 544.5,138.5C 544.5,120.167 544.5,101.833 544.5,83.5C 577.167,83.5 609.833,83.5 642.5,83.5C 642.334,93.8387 642.5,104.172 643,114.5C 661.967,93.893 685.467,82.5597 713.5,80.5 Z"/></g>
<g><path style="opacity:0.987" fill="#fefffe" d="M 1173.5,80.5 C 1199.74,78.7195 1223.08,85.8861 1243.5,102C 1249.17,107.188 1254,113.021 1258,119.5C 1274.16,98.1578 1295.66,85.6578 1322.5,82C 1349.96,77.6842 1375.29,83.0175 1398.5,98C 1416.75,113.657 1427.92,133.49 1432,157.5C 1433.66,166.762 1434.66,176.095 1435,185.5C 1435.5,216.498 1435.67,247.498 1435.5,278.5C 1444.5,278.5 1453.5,278.5 1462.5,278.5C 1462.5,296.5 1462.5,314.5 1462.5,332.5C 1417.17,332.5 1371.83,332.5 1326.5,332.5C 1326.5,314.5 1326.5,296.5 1326.5,278.5C 1335.5,278.5 1344.5,278.5 1353.5,278.5C 1353.97,241.452 1353.47,204.452 1352,167.5C 1349.69,157.86 1343.86,151.36 1334.5,148C 1313.9,142.022 1296.4,146.856 1282,162.5C 1277.56,168.809 1274.9,175.809 1274,183.5C 1273.5,215.165 1273.33,246.832 1273.5,278.5C 1283.17,278.5 1292.83,278.5 1302.5,278.5C 1302.5,296.5 1302.5,314.5 1302.5,332.5C 1256.83,332.5 1211.17,332.5 1165.5,332.5C 1165.5,314.5 1165.5,296.5 1165.5,278.5C 1174.83,278.5 1184.17,278.5 1193.5,278.5C 1193.67,245.165 1193.5,211.832 1193,178.5C 1192.58,156.576 1181.41,145.576 1159.5,145.5C 1135.43,146.431 1120.26,158.431 1114,181.5C 1113.5,213.832 1113.33,246.165 1113.5,278.5C 1122.83,278.5 1132.17,278.5 1141.5,278.5C 1141.5,296.5 1141.5,314.5 1141.5,332.5C 1095.5,332.5 1049.5,332.5 1003.5,332.5C 1003.5,314.5 1003.5,296.5 1003.5,278.5C 1012.83,278.5 1022.17,278.5 1031.5,278.5C 1031.5,231.833 1031.5,185.167 1031.5,138.5C 1020.5,138.5 1009.5,138.5 998.5,138.5C 998.5,120.167 998.5,101.833 998.5,83.5C 1033.17,83.5 1067.83,83.5 1102.5,83.5C 1102.33,93.8387 1102.5,104.172 1103,114.5C 1121.97,93.893 1145.47,82.5597 1173.5,80.5 Z"/></g>
<g><path style="opacity:0.989" fill="#fefffe" d="M 1629.5,80.5 C 1641.17,80.5 1652.83,80.5 1664.5,80.5C 1664.5,104.5 1664.5,128.5 1664.5,152.5C 1650.5,152.333 1636.5,152.5 1622.5,153C 1594.2,155.533 1577.7,170.7 1573,198.5C 1572.5,225.165 1572.33,251.831 1572.5,278.5C 1581.5,278.5 1590.5,278.5 1599.5,278.5C 1599.5,296.5 1599.5,314.5 1599.5,332.5C 1554.17,332.5 1508.83,332.5 1463.5,332.5C 1463.5,314.5 1463.5,296.5 1463.5,278.5C 1472.83,278.5 1482.17,278.5 1491.5,278.5C 1491.5,231.833 1491.5,185.167 1491.5,138.5C 1481.5,138.5 1471.5,138.5 1461.5,138.5C 1461.5,120.167 1461.5,101.833 1461.5,83.5C 1496.17,83.5 1530.83,83.5 1565.5,83.5C 1565.33,94.505 1565.5,105.505 1566,116.5C 1581.44,94.587 1602.61,82.587 1629.5,80.5 Z"/></g>
<g><path style="opacity:0.008" fill="#fefffe" d="M 1702.5,242.5 C 1702.9,241.475 1703.56,241.308 1704.5,242C 1703.91,242.464 1703.24,242.631 1702.5,242.5 Z"/></g>
<g><path style="opacity:0.952" fill="#fefffe" d="M 1719.5,323.5 C 1703.89,334.517 1686.89,337.017 1668.5,331C 1642.69,316.933 1634.52,295.766 1644,267.5C 1656.14,246.436 1674.31,238.269 1698.5,243C 1718.18,247.093 1730.35,258.926 1735,278.5C 1737.3,296.102 1732.13,311.102 1719.5,323.5 Z"/></g>
<g><path style="opacity:0.008" fill="#fefffe" d="M 1705.5,242.5 C 1706.83,243.167 1706.83,243.167 1705.5,242.5 Z"/></g>
<g><path style="opacity:0.008" fill="#fefffe" d="M 1711.5,245.5 C 1712.83,246.167 1712.83,246.167 1711.5,245.5 Z"/></g>
<g><path style="opacity:0.008" fill="#fefffe" d="M 1719.5,250.5 C 1718.83,249.167 1718.83,249.167 1719.5,250.5 Z"/></g>
<g><path style="opacity:0.008" fill="#fefffe" d="M 1719.5,250.5 C 1720.83,251.167 1720.83,251.167 1719.5,250.5 Z"/></g>
<g><path style="opacity:0.008" fill="#fefffe" d="M 1727.5,258.5 C 1728.83,259.167 1728.83,259.167 1727.5,258.5 Z"/></g>
<g><path style="opacity:0.008" fill="#fefffe" d="M 1719.5,323.5 C 1720.24,323.369 1720.91,323.536 1721.5,324C 1720.56,324.692 1719.9,324.525 1719.5,323.5 Z"/></g>
<g><path style="opacity:0.008" fill="#fefffe" d="M 1714.5,328.5 C 1714.9,327.475 1715.56,327.308 1716.5,328C 1715.91,328.464 1715.24,328.631 1714.5,328.5 Z"/></g>
<g><path style="opacity:0.008" fill="#fefffe" d="M 1706.5,332.5 C 1707.83,333.167 1707.83,333.167 1706.5,332.5 Z"/></g>
<g><path style="opacity:0.008" fill="#fefffe" d="M 1678.5,335.5 C 1677.83,334.167 1677.83,334.167 1678.5,335.5 Z"/></g>
<g><path style="opacity:0.008" fill="#fefffe" d="M 1697.5,335.5 C 1698.17,334.167 1698.83,334.167 1699.5,335.5C 1698.83,335.5 1698.17,335.5 1697.5,335.5 Z"/></g>
</svg>
