<?xml version="1.0" encoding="UTF-8"?>
<!DOCTYPE svg PUBLIC "-//W3C//DTD SVG 1.1//EN" "http://www.w3.org/Graphics/SVG/1.1/DTD/svg11.dtd">
<svg xmlns="http://www.w3.org/2000/svg" version="1.1" width="101px" height="64px" style="shape-rendering:geometricPrecision; text-rendering:geometricPrecision; image-rendering:optimizeQuality; fill-rule:evenodd; clip-rule:evenodd" xmlns:xlink="http://www.w3.org/1999/xlink">
<g><path d="M -0.5,-0.5 C 0.5,-0.5 1.5,-0.5 2.5,-0.5C 19.1466,9.49345 36.1466,18.9935 53.5,28C 54.8333,31.3333 54.8333,34.6667 53.5,38C 36.3981,46.2617 19.3981,54.7617 2.5,63.5C 1.5,63.5 0.5,63.5 -0.5,63.5C -0.5,59.1667 -0.5,54.8333 -0.5,50.5C 12.4953,45.337 25.162,39.5037 37.5,33C 25.0339,25.6872 12.3672,18.8539 -0.5,12.5C -0.5,8.16667 -0.5,3.83333 -0.5,-0.5 Z" fill="#ffffff"/></g>
<g><path fill="#ffffff" d="M 46.5,-0.5 C 47.5,-0.5 48.5,-0.5 49.5,-0.5C 66.0108,9.5915 83.0108,18.9248 100.5,27.5C 100.5,31.1667 100.5,34.8333 100.5,38.5C 83.2456,46.6284 66.2456,54.9618 49.5,63.5C 48.5,63.5 47.5,63.5 46.5,63.5C 46.5,59.1667 46.5,54.8333 46.5,50.5C 59.5238,45.4888 72.1904,39.6555 84.5,33C 72.4886,25.6593 60.1553,18.826 47.5,12.5C 46.5078,8.2172 46.1744,3.88387 46.5,-0.5 Z"/></g>
</svg>